<svg width="458" height="187" viewBox="0 0 458 187" fill="none" xmlns="http://www.w3.org/2000/svg">
<path d="M55.2727 187L0.363636 0.818176H56.7273L82.1818 115.364H83.6364L113.818 0.818176H158.182L188.364 115.727H189.818L215.273 0.818176H271.636L216.727 187H168.364L136.727 83H135.273L103.636 187H55.2727ZM288 187V0.818176H338.545V76.0909H341.091L397.091 0.818176H456L393.091 83.7273L457.455 187H397.091L355.273 117.182L338.545 139V187H288Z" fill="white"/>
<path d="M55.2727 187L50.4769 188.414L51.5344 192H55.2727V187ZM0.363636 0.818176V-4.18182H-6.32389L-4.43215 2.23256L0.363636 0.818176ZM56.7273 0.818176L61.6082 -0.266476L60.7381 -4.18182H56.7273V0.818176ZM82.1818 115.364L77.3009 116.448L78.171 120.364H82.1818V115.364ZM83.6364 115.364V120.364H87.4896L88.4713 116.638L83.6364 115.364ZM113.818 0.818176V-4.18182H109.965L108.983 -0.455801L113.818 0.818176ZM158.182 0.818176L163.018 -0.45203L162.038 -4.18182H158.182V0.818176ZM188.364 115.727L183.528 116.997L184.507 120.727H188.364V115.727ZM189.818 115.727V120.727H193.832L194.7 116.809L189.818 115.727ZM215.273 0.818176V-4.18182H211.259L210.391 -0.263204L215.273 0.818176ZM271.636 0.818176L276.432 2.23256L278.324 -4.18182H271.636V0.818176ZM216.727 187V192H220.466L221.523 188.414L216.727 187ZM168.364 187L163.58 188.455L164.658 192H168.364V187ZM136.727 83L141.511 81.5449L140.433 78H136.727V83ZM135.273 83V78H131.567L130.489 81.5449L135.273 83ZM103.636 187V192H107.342L108.42 188.455L103.636 187ZM60.0685 185.586L5.15942 -0.596205L-4.43215 2.23256L50.4769 188.414L60.0685 185.586ZM0.363636 5.81818H56.7273V-4.18182H0.363636V5.81818ZM51.8463 1.90283L77.3009 116.448L87.0628 114.279L61.6082 -0.266476L51.8463 1.90283ZM82.1818 120.364H83.6364V110.364H82.1818V120.364ZM88.4713 116.638L118.653 2.09215L108.983 -0.455801L78.8014 114.09L88.4713 116.638ZM113.818 5.81818H158.182V-4.18182H113.818V5.81818ZM153.346 2.08838L183.528 116.997L193.2 114.457L163.018 -0.45203L153.346 2.08838ZM188.364 120.727H189.818V110.727H188.364V120.727ZM194.7 116.809L220.154 1.89956L210.391 -0.263204L184.937 114.646L194.7 116.809ZM215.273 5.81818H271.636V-4.18182H215.273V5.81818ZM266.841 -0.596205L211.931 185.586L221.523 188.414L276.432 2.23256L266.841 -0.596205ZM216.727 182H168.364V192H216.727V182ZM173.147 185.545L141.511 81.5449L131.944 84.4551L163.58 188.455L173.147 185.545ZM136.727 78H135.273V88H136.727V78ZM130.489 81.5449L98.8528 185.545L108.42 188.455L140.056 84.4551L130.489 81.5449ZM103.636 182H55.2727V192H103.636V182ZM288 187H283V192H288V187ZM288 0.818176V-4.18182H283V0.818176H288ZM338.545 0.818176H343.545V-4.18182H338.545V0.818176ZM338.545 76.0909H333.545V81.0909H338.545V76.0909ZM341.091 76.0909V81.0909H343.603L345.103 79.0754L341.091 76.0909ZM397.091 0.818176V-4.18182H394.579L393.079 -2.1663L397.091 0.818176ZM456 0.818176L459.983 3.84049L466.07 -4.18182H456V0.818176ZM393.091 83.7273L389.108 80.705L387.026 83.4488L388.848 86.3719L393.091 83.7273ZM457.455 187V192H466.462L461.698 184.355L457.455 187ZM397.091 187L392.801 189.569L394.257 192H397.091V187ZM355.273 117.182L359.562 114.613L355.781 108.3L351.305 114.14L355.273 117.182ZM338.545 139L334.577 135.958L333.545 137.304V139H338.545ZM338.545 187V192H343.545V187H338.545ZM293 187V0.818176H283V187H293ZM288 5.81818H338.545V-4.18182H288V5.81818ZM333.545 0.818176V76.0909H343.545V0.818176H333.545ZM338.545 81.0909H341.091V71.0909H338.545V81.0909ZM345.103 79.0754L401.103 3.80265L393.079 -2.1663L337.079 73.1064L345.103 79.0754ZM397.091 5.81818H456V-4.18182H397.091V5.81818ZM452.017 -2.20414L389.108 80.705L397.074 86.7496L459.983 3.84049L452.017 -2.20414ZM388.848 86.3719L453.211 189.645L461.698 184.355L397.334 81.0827L388.848 86.3719ZM457.455 182H397.091V192H457.455V182ZM401.38 184.431L359.562 114.613L350.983 119.751L392.801 189.569L401.38 184.431ZM351.305 114.14L334.577 135.958L342.513 142.042L359.241 120.224L351.305 114.14ZM333.545 139V187H343.545V139H333.545ZM338.545 182H288V192H338.545V182Z" fill="#1B1F23" fill-opacity="0.04"/>
</svg>
